<svg xmlns="http://www.w3.org/2000/svg" width="144" height="144" viewBox="0 0 144 144">
<defs>
  <radialGradient id="bg" cx="50%" cy="20%" r="95%">
    <stop offset="0" stop-color="#26315a"/><stop offset="0.55" stop-color="#1b2240"/><stop offset="1" stop-color="#12162a"/>
  </radialGradient>
  <radialGradient id="wash" cx="50%" cy="34%" r="44%">
    <stop offset="0" stop-color="#5aa9ff" stop-opacity="0.3"/><stop offset="1" stop-color="#6cd0fa" stop-opacity="0"/>
  </radialGradient>
  <linearGradient id="ob" x1="0" y1="0" x2="1" y2="1"><stop offset="0" stop-color="#3f86e8"/><stop offset="1" stop-color="#2c4fc4"/></linearGradient>
  <linearGradient id="os" x1="0" y1="0" x2="1" y2="0"><stop offset="0" stop-color="#8fd3fb"/><stop offset="0.5" stop-color="#6f8cf4"/><stop offset="1" stop-color="#4b3fd1"/></linearGradient>
  <linearGradient id="of" x1="0" y1="0" x2="1" y2="0"><stop offset="0" stop-color="#6ccbf8"/><stop offset="1" stop-color="#3a7ee6"/></linearGradient>
  <linearGradient id="op" x1="0" y1="0" x2="1" y2="1"><stop offset="0" stop-color="#4d8cf0"/><stop offset="1" stop-color="#2447b8"/></linearGradient>
  <filter id="lift" x="-30%" y="-30%" width="160%" height="170%">
    <feDropShadow dx="0" dy="1.5" stdDeviation="1.8" flood-color="#000" flood-opacity="0.5"/>
  </filter>
</defs>
<rect width="144" height="144" fill="url(#bg)"/>
<rect width="144" height="144" fill="url(#wash)"/>

<g transform="translate(40 16)" filter="url(#lift)"><path d="M10 24 L34 8 Q37 6 40 8 L62 22 V52 Q62 58 56 58 H16 Q10 58 10 52 Z" fill="url(#ob)"/><path d="M22 14 L34 7 Q37 5.5 40 7 L62 21 V30 L48 40 Z" fill="url(#os)" opacity="0.95"/><path d="M10 26 L40 46 L62 30 V52 Q62 58 56 58 H16 Q10 58 10 52 Z" fill="url(#of)"/><rect x="0" y="22" width="32" height="32" rx="7" fill="url(#op)"/><ellipse cx="16" cy="38" rx="8" ry="9" fill="none" stroke="#fff" stroke-width="5"/></g>
<text x="72" y="107" font-family=".SF NS Rounded" font-size="17.5" fill="#ffffff" stroke="#ffffff" stroke-width="0.6" text-anchor="middle" filter="url(#lift)">Outlook</text>
<text x="72" y="128" font-family=".SF NS Mono" font-size="15" fill="#a9d4ff" stroke="#a9d4ff" stroke-width="0.45" text-anchor="middle">open app</text>
<rect x="0.75" y="0.75" width="142.5" height="142.5" rx="20" fill="none" stroke="#fff" stroke-opacity="0.2" stroke-width="1.5"/>
</svg>