<svg xmlns="http://www.w3.org/2000/svg" width="144" height="144" viewBox="0 0 144 144">
<defs>
  <radialGradient id="bg" cx="50%" cy="20%" r="95%">
    <stop offset="0" stop-color="#272727"/><stop offset="0.55" stop-color="#1e1e1e"/><stop offset="1" stop-color="#161616"/>
  </radialGradient>
  <radialGradient id="wash" cx="50%" cy="34%" r="44%">
    <stop offset="0" stop-color="#c586c0" stop-opacity="0.11"/><stop offset="1" stop-color="#c586c0" stop-opacity="0"/>
  </radialGradient>
  <filter id="lift" x="-30%" y="-30%" width="160%" height="170%">
    <feDropShadow dx="0" dy="1.5" stdDeviation="1.6" flood-color="#000" flood-opacity="0.5"/>
  </filter>
</defs>
<rect width="144" height="144" fill="url(#bg)"/>
<rect width="144" height="144" fill="url(#wash)"/>
<rect x="0" y="30" width="4.5" height="52" fill="#c586c0"/>
<g transform="translate(40 14)" filter="url(#lift)"><line x1="6" y1="8" x2="36" y2="8" stroke="#e8e8e8" stroke-width="3.6" stroke-linecap="round"/><line x1="16" y1="18" x2="50" y2="18" stroke="#e8e8e8" stroke-width="3.6" stroke-linecap="round"/><line x1="16" y1="28" x2="40" y2="28" stroke="#e8e8e8" stroke-width="3.6" stroke-linecap="round"/><line x1="26" y1="38" x2="56" y2="38" stroke="#e8e8e8" stroke-width="3.6" stroke-linecap="round"/><line x1="16" y1="48" x2="52" y2="48" stroke="#e8e8e8" stroke-width="3.6" stroke-linecap="round"/><line x1="6" y1="58" x2="26" y2="58" stroke="#e8e8e8" stroke-width="3.6" stroke-linecap="round"/><g opacity="0.95"><line x1="6" y1="18" x2="6" y2="48" stroke="#c586c0" stroke-width="3" stroke-linecap="round"/><line x1="16" y1="28" x2="16" y2="38" stroke="#c586c0" stroke-width="3" stroke-linecap="round"/></g></g>
<text x="72" y="103" font-family="Helvetica Neue" font-size="18" font-weight="700" fill="#f2f2f2" text-anchor="middle" filter="url(#lift)">Format</text>
<rect x="0" y="113" width="144" height="31" fill="#c586c0" fill-opacity="0.16"/>
<rect x="0" y="113" width="144" height="1.5" fill="#c586c0" fill-opacity="0.6"/>
<text x="72" y="134" font-family=".SF NS Mono" font-size="16.5" fill="#c586c0" stroke="#c586c0" stroke-width="0.5" text-anchor="middle">⇧⌥F</text>
</svg>