<svg xmlns="http://www.w3.org/2000/svg" width="144" height="144" viewBox="0 0 144 144">
<defs>
  <radialGradient id="bg" cx="50%" cy="20%" r="95%">
    <stop offset="0" stop-color="#1b261f"/><stop offset="0.55" stop-color="#131b16"/><stop offset="1" stop-color="#0b100d"/>
  </radialGradient>
  <radialGradient id="wash" cx="50%" cy="34%" r="44%">
    <stop offset="0" stop-color="#6fd47a" stop-opacity="0.13"/><stop offset="1" stop-color="#6fd47a" stop-opacity="0"/>
  </radialGradient>
  <filter id="lift" x="-30%" y="-30%" width="160%" height="170%">
    <feDropShadow dx="0" dy="1.5" stdDeviation="1.8" flood-color="#000" flood-opacity="0.5"/>
  </filter>
</defs>
<rect width="144" height="144" fill="url(#bg)"/>
<rect width="144" height="144" fill="url(#wash)"/>
<g opacity="0.6"><rect x="11" y="12" width="15" height="11" fill="none" stroke="#6fd47a" stroke-width="1.8"/><rect x="23.5" y="20.5" width="5" height="5" fill="#6fd47a"/></g>
<g transform="translate(40 14)" filter="url(#lift)"><rect x="4" y="20" width="40" height="42" rx="3" fill="none" stroke="#ffffffaa" stroke-width="3.4"/><line x1="24" y1="20" x2="24" y2="62" stroke="#ffffffaa" stroke-width="2.4" stroke-linecap="round"/><line x1="4" y1="34" x2="44" y2="34" stroke="#ffffffaa" stroke-width="2.4" stroke-linecap="round"/><line x1="4" y1="48" x2="44" y2="48" stroke="#ffffffaa" stroke-width="2.4" stroke-linecap="round"/><circle cx="48" cy="16" r="15" fill="#111a14"/><circle cx="48" cy="16" r="12" fill="#6fd47a44" stroke="#6fd47a" stroke-width="3.4"/><line x1="41.5" y1="16" x2="54.5" y2="16" stroke="#6fd47a" stroke-width="4" stroke-linecap="round"/><line x1="48" y1="9.5" x2="48" y2="22.5" stroke="#6fd47a" stroke-width="4" stroke-linecap="round"/></g>
<text x="72" y="106" font-family="Aptos" font-size="18" font-weight="700" fill="#ffffff" stroke="#ffffff" stroke-width="0.25" text-anchor="middle" filter="url(#lift)">Insert</text>
<text x="72" y="127" font-family=".SF NS Mono" font-size="15" fill="#8fe097" stroke="#8fe097" stroke-width="0.45" text-anchor="middle">⌃⇧=</text>
<rect x="0.75" y="0.75" width="142.5" height="142.5" rx="20" fill="none" stroke="#fff" stroke-opacity="0.08" stroke-width="1.5"/>
</svg>