<svg xmlns="http://www.w3.org/2000/svg" width="144" height="144" viewBox="0 0 144 144">
<defs>
  <radialGradient id="bg" cx="50%" cy="20%" r="95%">
    <stop offset="0" stop-color="#2b2d31"/><stop offset="0.55" stop-color="#1e1f22"/><stop offset="1" stop-color="#111214"/>
  </radialGradient>
  <radialGradient id="wash" cx="50%" cy="34%" r="44%">
    <stop offset="0" stop-color="#f23f43" stop-opacity="0.13"/><stop offset="1" stop-color="#f23f43" stop-opacity="0"/>
  </radialGradient>
  <filter id="lift" x="-30%" y="-30%" width="160%" height="170%">
    <feDropShadow dx="0" dy="1.5" stdDeviation="1.8" flood-color="#000" flood-opacity="0.5"/>
  </filter>
</defs>
<rect width="144" height="144" fill="url(#bg)"/>
<rect width="144" height="144" fill="url(#wash)"/>
<circle cx="18" cy="18" r="9.1" fill="#000" fill-opacity="0.35"/><circle cx="18" cy="18" r="6.5" fill="#f23f43" stroke="none" stroke-width="0"/><rect x="14.4" y="16.8" width="7.2" height="2.4" rx="1.2" fill="#1a1b1e"/>
<g transform="translate(40 14)" filter="url(#lift)"><polygon points="25.96,13.99 27.70,7.37 36.30,7.37 38.04,13.99 40.47,14.99 46.38,11.55 52.45,17.62 49.01,23.53 50.01,25.96 56.63,27.70 56.63,36.30 50.01,38.04 49.01,40.47 52.45,46.38 46.38,52.45 40.47,49.01 38.04,50.01 36.30,56.63 27.70,56.63 25.96,50.01 23.53,49.01 17.62,52.45 11.55,46.38 14.99,40.47 13.99,38.04 7.37,36.30 7.37,27.70 13.99,25.96 14.99,23.53 11.55,17.62 17.62,11.55 23.53,14.99" fill="none" stroke="#ffffff" stroke-width="4.2" stroke-linejoin="round"/><circle cx="32" cy="32" r="7.5" fill="none" stroke="#f23f43" stroke-width="4.2"/></g>
<text x="72" y="106" font-family=".SF NS Rounded" font-size="17.5" font-weight="700" fill="#ffffff" stroke="#ffffff" stroke-width="0.6" text-anchor="middle" filter="url(#lift)">Settings</text>
<text x="72" y="127" font-family=".SF NS Mono" font-size="15" fill="#ff6b6e" stroke="#ff6b6e" stroke-width="0.45" text-anchor="middle">⌘,</text>
<rect x="0.75" y="0.75" width="142.5" height="142.5" rx="20" fill="none" stroke="#fff" stroke-opacity="0.08" stroke-width="1.5"/>
</svg>